<?xml version="1.0" encoding="UTF-8"?>
<svg id="Layer_2" data-name="Layer 2" xmlns="http://www.w3.org/2000/svg" xmlns:xlink="http://www.w3.org/1999/xlink" viewBox="0 0 31.88 32">
  <defs>
    <clipPath id="clippath">
      <circle cx="15.94" cy="16" r="15.94" style="fill: none;"/>
    </clipPath>
  </defs>
  <g style="clip-path: url(#clippath); fill: none;">
    <circle cx="15.94" cy="16" r="15.94" style="fill: #0285d0;"/>
    <path d="m18.9,4.89c-.28-.28-1.5-1.33-6.12.24C5.61,7.55,1.26,12.53.92,12.94c-.33.39-.65.79-.96,1.19v5.13c.78-.85,1.64-1.71,2.62-2.58,1.87-1.65,3.51-2.73,4.13-3.12,1.63-1.04,3.74-2.39,6.68-3.29,3.51-1.08,5.18-.59,5.96-1.95.59-1.03.37-2.6-.46-3.41Z" style="fill: #fff;"/>
    <path d="m19.35,16.23c-.78,1.36-2.45.88-5.96,1.95-2.94.91-5.05,2.26-6.68,3.3-.62.39-2.26,1.47-4.13,3.12-.97.86-1.82,1.72-2.58,2.56v-5.12l2.11-2.42c1.79-1.73,5.5-4.82,10.67-6.57,4.62-1.56,5.83-.51,6.12-.23.82.82,1.04,2.38.45,3.41Z" style="fill: #fff;"/>
    <path d="m18.9,20.68c-.28-.28-1.5-1.33-6.12.24-7.16,2.43-11.51,7.41-11.86,7.81-.33.38-.62.77-.91,1.16v2.13h3.1c1.65-1.4,3.05-2.32,3.61-2.68,1.63-1.04,3.74-2.39,6.68-3.29,3.51-1.08,5.18-.59,5.96-1.95.59-1.03.37-2.6-.46-3.41Z" style="fill: #fff;"/>
  </g>
</svg>